<?xml version="1.0" encoding="utf-8"?>
<!-- Svg Vector Icons : http://www.onlinewebfonts.com/icon -->
<!DOCTYPE svg PUBLIC "-//W3C//DTD SVG 1.1//EN" "http://www.w3.org/Graphics/SVG/1.1/DTD/svg11.dtd">
<svg version="1.1" xmlns="http://www.w3.org/2000/svg" xmlns:xlink="http://www.w3.org/1999/xlink" x="0px" y="0px" viewBox="0 0 1000 1000" enable-background="new 0 0 1000 1000" xml:space="preserve">
<metadata> Svg Vector Icons : http://www.onlinewebfonts.com/icon </metadata>
<g><path d="M867.5,142.7h-735C64.9,142.7,10,197.5,10,265.2v469.6c0,67.6,54.8,122.5,122.5,122.5h735c67.6,0,122.5-54.8,122.5-122.5V265.2C990,197.5,935.2,142.7,867.5,142.7z M887.9,714.4c0,11.3-8.6,20.9-16.9,28.9s-18.3,12-30.1,12H187.4c-17,0-31.5-8.9-38.7-23.7c-7.1-14.8-4.8-31.1,6.2-43.6l195.4-220.2c8.4-9.4,19.4-14.3,32.3-14.4c12.9,0,24,4.8,32.4,14.1l101.5,112.2c8.4,9.3,19.4,14.1,32.2,14.1c12.8,0,23.8-4.8,32.2-14.1l227.7-252c11.9-13.2,30.1-17.6,47.1-11.5c17,6.1,32.1,21.1,32.1,51.2L887.9,714.4L887.9,714.4z"/></g>
</svg>